<svg xmlns="http://www.w3.org/2000/svg" width="256" height="256" viewBox="0 0 256 256">
  <defs>
    <style>
      .app-logo-svg {
        fill: #8899a9;
        fill-rule: evenodd;
      }
    </style>
  </defs>
  <path id="app-logo-svg" data-name="app-logo-svg" class="app-logo-svg" d="M15.167,176.462H151.856a9.167,9.167,0,0,1,9.167,9.166v53.205A9.167,9.167,0,0,1,151.856,248H15.167A9.167,9.167,0,0,1,6,238.833V185.628A9.167,9.167,0,0,1,15.167,176.462ZM186.66,92.983h53.173A9.167,9.167,0,0,1,249,102.15V238.833A9.167,9.167,0,0,1,239.833,248H186.66a9.167,9.167,0,0,1-9.167-9.167V102.15A9.167,9.167,0,0,1,186.66,92.983ZM14.167,7h52.2a9.167,9.167,0,0,1,9.167,9.167v136.7a9.167,9.167,0,0,1-9.167,9.166h-52.2A9.166,9.166,0,0,1,5,152.865V16.167A9.167,9.167,0,0,1,14.167,7Zm88.977,0H239.833A9.167,9.167,0,0,1,249,16.167V69.337a9.167,9.167,0,0,1-9.167,9.167H103.144a9.167,9.167,0,0,1-9.167-9.167V16.167A9.167,9.167,0,0,1,103.144,7Zm0.034,85.983h48.644a9.167,9.167,0,0,1,9.167,9.167v50.666a9.167,9.167,0,0,1-9.167,9.166H103.178a9.166,9.166,0,0,1-9.167-9.166V102.15A9.167,9.167,0,0,1,103.178,92.983Z"/>
</svg>
